<?xml version="1.0" standalone="no"?>
<!DOCTYPE svg PUBLIC "-//W3C//DTD SVG 20010904//EN"
 "http://www.w3.org/TR/2001/REC-SVG-20010904/DTD/svg10.dtd">
<svg version="1.0" xmlns="http://www.w3.org/2000/svg"
 width="16.000000pt" height="16.000000pt" viewBox="0 0 16.000000 16.000000"
 preserveAspectRatio="xMidYMid meet">
<metadata>
Created by potrace 1.11, written by Peter Selinger 2001-2013
</metadata>
<g transform="translate(0.000000,16.000000) scale(0.003125,-0.003125)"
fill="#000000" stroke="none">
<path d="M2899 4565 c-2 -1 -56 -6 -119 -10 -63 -3 -131 -8 -150 -10 -19 -3
-60 -7 -90 -10 -67 -8 -99 -12 -215 -30 -270 -44 -505 -106 -734 -197 -82 -32
-307 -143 -331 -162 -8 -7 -40 -27 -70 -45 -163 -98 -353 -268 -485 -436 -54
-69 -175 -255 -175 -269 0 -3 -16 -38 -35 -78 -64 -131 -131 -362 -150 -518
-20 -158 -26 -449 -11 -530 2 -14 5 -33 5 -42 1 -12 14 -3 44 30 134 149 315
329 382 382 22 17 45 37 50 43 6 7 62 53 125 102 282 220 579 396 905 539 72
31 139 61 150 66 203 89 616 206 940 265 57 10 220 34 280 41 33 3 68 8 78 10
58 11 377 23 377 14 0 -3 -24 -14 -52 -24 -29 -10 -66 -24 -83 -31 -16 -7 -93
-39 -170 -70 -77 -32 -178 -75 -223 -97 -46 -21 -86 -38 -88 -38 -7 0 -456
-225 -521 -261 -32 -17 -78 -43 -103 -57 -485 -267 -925 -571 -1312 -906 -107
-92 -383 -364 -468 -461 -246 -279 -432 -553 -575 -845 -70 -143 -77 -163 -72
-199 14 -89 162 -191 275 -191 74 0 99 24 175 171 37 74 82 155 98 182 16 26
29 49 29 52 0 23 250 387 372 542 l63 80 70 -24 c144 -50 364 -114 475 -138
173 -37 209 -42 410 -64 101 -11 387 -6 480 9 41 7 84 13 95 15 11 1 58 13
105 25 485 129 807 443 1127 1100 39 80 120 246 180 370 288 593 522 904 874
1162 81 60 92 67 201 130 107 62 110 78 20 126 -116 61 -338 124 -662 187 -41
7 -97 17 -125 21 -27 3 -57 8 -65 9 -9 2 -43 6 -75 10 -33 4 -67 9 -75 10 -47
8 -172 22 -280 30 -41 3 -95 8 -120 11 -52 6 -746 14 -751 9z"/>
</g>
</svg>
