<?xml version="1.0" standalone="no"?>
<!DOCTYPE svg PUBLIC "-//W3C//DTD SVG 20010904//EN"
 "http://www.w3.org/TR/2001/REC-SVG-20010904/DTD/svg10.dtd">
<svg version="1.0" xmlns="http://www.w3.org/2000/svg"
 width="512.000000pt" height="512.000000pt" viewBox="0 0 512.000000 512.000000"
 preserveAspectRatio="xMidYMid meet">
<metadata>
Created by potrace 1.11, written by Peter Selinger 2001-2013
</metadata>
<g transform="translate(0.000000,512.000000) scale(0.100000,-0.100000)"
fill="#000000" stroke="none">
<path d="M4750 5046 c-122 -71 -1364 -788 -1535 -886 -16 -9 -104 -60 -195
-112 -91 -53 -250 -145 -355 -205 -104 -60 -280 -162 -390 -225 -110 -64 -315
-182 -455 -263 -140 -81 -273 -158 -295 -170 -501 -285 -1457 -843 -1478 -863
-52 -50 -59 -158 -13 -223 25 -37 55 -54 211 -117 66 -27 314 -129 551 -226
236 -97 436 -176 442 -176 10 0 296 239 422 354 19 17 103 90 185 161 189 163
451 389 490 424 17 14 95 82 175 151 80 68 181 156 225 195 44 38 107 93 140
121 153 131 763 660 792 685 17 15 130 113 250 216 120 103 220 190 223 193
17 18 138 120 144 120 4 0 1 -6 -6 -14 -14 -14 -50 -58 -154 -186 -38 -47 -76
-94 -86 -105 -9 -11 -101 -123 -204 -250 -102 -126 -201 -248 -219 -270 -33
-39 -287 -351 -355 -435 -19 -24 -100 -123 -180 -220 -80 -98 -269 -329 -420
-514 -151 -186 -285 -350 -297 -364 -12 -15 -117 -144 -233 -287 -116 -143
-219 -269 -228 -280 -9 -11 -29 -35 -44 -53 l-28 -34 0 -516 c0 -482 2 -520
19 -558 33 -72 107 -111 188 -100 59 8 90 32 165 125 35 42 193 235 351 428
260 316 291 351 310 343 12 -4 310 -126 662 -270 717 -293 704 -290 792 -224
47 35 64 81 87 229 3 17 12 73 21 125 9 52 18 109 21 125 2 17 6 41 9 55 3 14
7 39 9 55 3 17 12 73 21 125 9 52 18 109 21 125 2 17 6 41 9 55 3 14 7 39 9
55 3 17 12 73 21 125 9 52 18 106 20 120 2 14 16 95 30 180 14 85 28 166 30
180 2 14 7 40 10 58 5 33 10 64 19 117 3 17 14 86 26 155 12 69 23 136 25 150
2 14 11 68 20 120 9 52 18 106 20 120 2 14 16 95 30 180 14 85 28 166 30 180
2 14 18 108 35 210 17 102 33 196 35 210 2 14 18 108 35 210 17 102 33 196 35
210 2 14 11 68 20 120 9 52 18 109 21 125 2 17 6 41 9 55 3 14 7 39 9 55 3 17
12 73 21 125 9 52 18 107 21 123 9 61 14 87 34 206 34 199 34 204 34 256 -1
99 -74 165 -180 165 -55 -1 -68 -6 -184 -74z"/>
</g>
</svg>
