<?xml version="1.0" standalone="no"?>
<!DOCTYPE svg PUBLIC "-//W3C//DTD SVG 20010904//EN"
 "http://www.w3.org/TR/2001/REC-SVG-20010904/DTD/svg10.dtd">
<svg version="1.0" xmlns="http://www.w3.org/2000/svg"
 width="16.000000pt" height="16.000000pt" viewBox="0 0 16.000000 16.000000"
 preserveAspectRatio="xMidYMid meet">
<metadata>
Created by potrace 1.11, written by Peter Selinger 2001-2013
</metadata>
<g transform="translate(0.000000,16.000000) scale(0.008000,-0.008000)"
fill="#000000" stroke="none">
<path d="M372 1876 c-110 -74 -118 -226 -18 -314 20 -17 42 -32 47 -32 7 0 8
-7 4 -17 -39 -95 -53 -274 -29 -371 30 -118 79 -218 141 -284 l25 -26 -30 -16
c-48 -25 -90 -76 -102 -125 -33 -133 60 -251 200 -251 l50 0 0 -92 c0 -117 11
-156 56 -202 64 -66 151 -81 231 -40 58 29 58 29 91 5 61 -43 166 -33 228 21
57 50 67 80 69 198 l2 105 59 6 c32 4 70 11 84 17 40 16 90 75 104 123 13 43
13 52 1 117 -6 32 -58 94 -103 122 l-24 15 23 25 c134 151 185 383 129 586
-11 42 -19 77 -18 78 156 87 162 288 10 365 -76 39 -173 19 -236 -47 -29 -31
-29 -31 -55 -13 -14 10 -62 31 -106 47 -70 25 -95 28 -195 28 -63 1 -128 -2
-143 -6 -58 -14 -129 -41 -171 -64 l-42 -24 -22 29 c-55 75 -178 92 -260 37z
m164 -111 l25 -25 -47 -54 c-52 -59 -70 -62 -98 -16 -48 82 53 162 120 95z
m593 9 c120 -31 251 -130 313 -235 126 -214 80 -495 -106 -653 -119 -101 -267
-144 -421 -121 -137 20 -282 117 -357 240 -68 109 -93 271 -61 392 47 181 191
328 370 378 61 17 192 16 262 -1z m434 2 c43 -33 38 -102 -9 -133 -20 -13 -25
-10 -70 43 l-48 56 27 24 c31 27 72 31 100 10z m-844 -1071 c50 -25 102 -44
141 -52 75 -15 165 -18 236 -8 49 8 162 44 190 62 26 17 136 12 159 -7 41 -34
37 -106 -8 -128 -12 -7 -67 -13 -121 -14 l-99 -3 -2 -150 c-1 -82 -5 -157 -9
-166 -10 -23 -50 -39 -83 -33 -50 8 -70 49 -63 132 1 21 -2 22 -59 22 -65 0
-68 -3 -61 -64 3 -31 -20 -73 -47 -85 -36 -16 -91 3 -104 36 -5 13 -9 89 -9
168 l0 143 -95 1 c-133 2 -156 13 -161 77 -3 55 33 82 108 82 34 -1 73 -6 87
-13z"/>
<path d="M754 1307 c-39 -21 -46 -63 -15 -91 28 -25 53 -26 79 -3 26 24 28 44
7 74 -18 26 -46 34 -71 20z"/>
<path d="M1200 1308 c-29 -11 -40 -25 -40 -54 0 -67 86 -81 110 -18 18 47 -24
90 -70 72z"/>
<path d="M957 1186 c-66 -24 -97 -66 -97 -132 0 -148 212 -187 266 -49 42 110
-60 219 -169 181z"/>
</g>
</svg>
